<svg width="51" height="42" viewBox="0 0 51 42" fill="none" xmlns="http://www.w3.org/2000/svg">
<g clip-path="url(#clip0_117_1355)">
<path d="M47.5205 33.9087C52.0934 25.7799 45.5783 13.4398 32.9686 6.34628C20.359 -0.747279 7.12688 0.95237 2.55406 9.08109C-2.01877 17.2098 8.95796 27.8119 21.5676 34.9054C34.1772 41.999 42.9477 42.0374 47.5205 33.9087Z" stroke="black" stroke-width="3.0632" stroke-miterlimit="10"/>
<path d="M26.5357 21.7348C30.3687 18.7819 32.9009 15.6418 32.1916 14.7211C31.4823 13.8004 27.8001 15.4478 23.9672 18.4006C20.1342 21.3534 17.602 24.4935 18.3113 25.4142C19.0206 26.3349 22.7028 24.6876 26.5357 21.7348Z" fill="black"/>
<path d="M17.27 14.912C20.6874 12.2792 22.8829 9.39859 22.1736 8.47789C21.4643 7.55718 18.1189 8.94507 14.7014 11.5778C11.2839 14.2106 9.08852 17.0912 9.79781 18.0119C10.5071 18.9326 13.8525 17.5448 17.27 14.912Z" fill="black"/>
<path d="M35.4321 28.5336C38.8496 25.9009 41.045 23.0202 40.3357 22.0995C39.6264 21.1788 36.281 22.5667 32.8635 25.1995C29.4461 27.8322 27.2507 30.7129 27.96 31.6336C28.6693 32.5543 32.0147 31.1664 35.4321 28.5336Z" fill="black"/>
</g>
<defs>
<clipPath id="clip0_117_1355">
<rect width="50.5135" height="42" fill="white"/>
</clipPath>
</defs>
</svg>
