<svg width="24" height="22" viewBox="0 0 24 22" fill="none" xmlns="http://www.w3.org/2000/svg">
<g clip-path="url(#clip0_320_92)">
<path d="M6.8865 0.252361C9.62212 -0.0569976 12.81 0.697838 15.8874 2.62485C18.9569 4.54685 21.3143 7.19676 22.6273 9.96483C23.9361 12.7242 24.2466 15.7084 23.0101 18.155C21.8161 20.5176 20.0212 21.7441 17.7132 21.815C15.4762 21.8837 12.8227 20.8664 9.81527 18.9832C6.80577 17.0987 3.94782 14.7234 2.10617 12.2335C0.289817 9.77777 -0.711604 6.94483 0.592842 4.36355C1.81359 1.94812 4.15375 0.561405 6.8865 0.252361ZM15.1806 4.02338C12.3242 2.23474 9.43145 1.57702 7.03218 1.84834C4.63001 2.12 2.78045 3.30782 1.84928 5.15029C1.00211 6.82676 1.50753 8.89928 3.21922 11.2135C4.90583 13.4937 7.59764 15.7534 10.5221 17.5846C13.4484 19.4171 15.8257 20.2676 17.6737 20.2108C19.4509 20.1562 20.7958 19.2635 21.7537 17.3682C22.6691 15.557 22.5225 13.1801 21.353 10.7142C20.1875 8.25707 18.045 5.81698 15.1806 4.02338Z" fill="black"/>
<path d="M12.5067 11.3849C14.3104 9.83815 15.502 8.19333 15.1682 7.71106C14.8344 7.22879 13.1016 8.09172 11.2979 9.63842C9.49421 11.1851 8.30259 12.8299 8.63638 13.3122C8.97016 13.7945 10.703 12.9316 12.5067 11.3849Z" fill="black"/>
<path d="M8.14631 7.81104C9.75455 6.43195 10.7877 4.92306 10.4539 4.44079C10.1201 3.95851 8.54579 4.6855 6.93756 6.06455C5.32937 7.44364 4.29622 8.95252 4.63 9.43479C4.96377 9.91706 6.53807 9.19012 8.14631 7.81104Z" fill="black"/>
<path d="M16.6932 14.9462C18.3014 13.5671 19.3345 12.0582 19.0008 11.5759C18.667 11.0936 17.0927 11.8206 15.4845 13.1997C13.8762 14.5788 12.8431 16.0877 13.1769 16.57C13.5107 17.0522 15.085 16.3252 16.6932 14.9462Z" fill="black"/>
</g>
<defs>
<clipPath id="clip0_320_92">
<rect width="24" height="22" fill="white"/>
</clipPath>
</defs>
</svg>
