<svg width="46" height="14" viewBox="0 0 46 14" fill="none" xmlns="http://www.w3.org/2000/svg">
<g clip-path="url(#clip0_325_108)">
<path d="M37.9458 0.743622H7.99827C6.77833 0.743622 5.78937 1.94488 5.78937 3.42672V10.5733C5.78937 12.0551 6.77833 13.2564 7.99827 13.2564H37.9458C39.1657 13.2564 40.1547 12.0551 40.1547 10.5733V3.42672C40.1547 1.94488 39.1657 0.743622 37.9458 0.743622Z" stroke="black" stroke-miterlimit="10"/>
<path d="M44.0516 8.96631C42.0399 8.96631 40.4093 8.10651 40.4093 7.04471C40.4093 5.98291 42.0399 5.12311 44.0516 5.12311C46.0633 5.12311 46.0633 8.96631 44.0516 8.96631Z" stroke="black" stroke-miterlimit="10"/>
<path d="M1.94991 8.96631C3.96162 8.96631 5.59218 8.10651 5.59218 7.04471C5.59218 5.98291 3.96162 5.12311 1.94991 5.12311C-0.0617956 5.12311 -0.0617956 8.96631 1.94991 8.96631Z" stroke="black" stroke-miterlimit="10"/>
</g>
<defs>
<clipPath id="clip0_325_108">
<rect width="46" height="14" fill="white"/>
</clipPath>
</defs>
</svg>
